<?xml version="1.0" encoding="UTF-8"?>
<svg id="Layer_2" data-name="Layer 2" xmlns="http://www.w3.org/2000/svg" viewBox="0 0 511.12 610.35">
  <defs>
    <style>
      .cls-1 {
        fill: #ffefe2;
      }
    </style>
  </defs>
  <g id="Layer_1-2" data-name="Layer 1">
    <polygon class="cls-1" points="508.38 607.46 433.71 603.16 362.28 610.35 290.86 608.59 219.43 599.38 148 607.34 76.57 605.86 4.3 605.17 10.92 529.38 0 454.38 5.51 379.38 2.11 304.38 10.56 229.38 10.12 154.38 4.28 79.38 8.35 7.43 76.56 8.66 147.99 6.3 219.41 0 290.84 1.57 362.27 0 433.7 .7 501.56 7.77 511.12 79.37 509.35 154.37 504.6 229.37 506.15 304.36 504.95 379.36 501.66 454.36 500.71 529.46 508.38 607.46"/>
  </g>
</svg>